<?xml version="1.0" encoding="UTF-8"?>
<svg width="37px" height="37px" viewBox="0 0 37 37" version="1.1" xmlns="http://www.w3.org/2000/svg" xmlns:xlink="http://www.w3.org/1999/xlink">
    <title>编组</title>
    <g id="页面-1" stroke="none" stroke-width="1" fill="none" fill-rule="evenodd">
        <g id="STAKING" transform="translate(-330.000000, -753.000000)">
            <g id="Nomiate" transform="translate(330.000000, 753.000000)">
                <rect id="矩形" stroke="#979797" stroke-width="1.54166667" opacity="0" x="0.770833333" y="0.770833333" width="35.4583333" height="35.4583333"></rect>
                <path d="M12.817404,18.5 C12.817404,16.1809435 12.817404,12.7023589 12.817404,8.06424593 C12.817404,7.43109824 13.2967675,6.91783062 13.8880923,6.91783062 L15.672573,6.91783062 C16.2638978,6.91783062 16.7432613,7.43109824 16.7432613,8.06424593 L16.7432613,17.6177069" id="路径" stroke="#FFFFFF" stroke-width="1.96292867" stroke-linecap="round" stroke-linejoin="round"></path>
                <path d="M20.6691187,17.6177069 L20.6691187,8.06424593 C20.6691187,7.43109824 21.1484822,6.91783062 21.739807,6.91783062 L23.5242876,6.91783062 C24.1156125,6.91783062 24.594976,7.43109824 24.594976,8.06424593 L24.594976,17.6177069" id="路径备份-2" stroke="#FFFFFF" stroke-width="1.96292867" stroke-linecap="round" stroke-linejoin="round"></path>
                <path d="M24.594976,12.1843931 C24.594976,11.5972925 25.0743395,11.1213534 25.6656644,11.1213534 L27.450145,11.1213534 C28.0414698,11.1213534 28.5208333,11.5972925 28.5208333,12.1843931 L28.5208333,22.8147896" id="路径备份-3" stroke="#FFFFFF" stroke-width="1.96292867" stroke-linecap="round" stroke-linejoin="round"></path>
                <path d="M16.7432613,17.2355684 L16.7432613,5.77141531 C16.7432613,5.13826762 17.2226248,4.625 17.8139497,4.625 L19.5984303,4.625 C20.1897551,4.625 20.6691187,5.13826762 20.6691187,5.77141531 L20.6691187,17.2355684" id="路径备份" stroke="#FFFFFF" stroke-width="1.96292867" stroke-linecap="round" stroke-linejoin="round"></path>
                <path d="M28.5208333,21.7188438 L28.5208333,25.4718689 C27.4930556,29.0461785 24.2215078,30.8333333 18.70619,30.8333333" id="路径-7" stroke="#FFFFFF" stroke-width="1.96292867" stroke-linecap="round" stroke-linejoin="round"></path>
                <path d="M14.6458333,20.0416667 C12.9906741,18.8587837 11.6499105,17.8094034 10.6235425,16.8935259 C9.08399063,15.5197095 8.31421468,16.3573794 7.15955075,17.4296723 C6.38977481,18.1445342 7.62141632,20.1561184 10.8544753,23.464425 C10.3156321,28.3770305 12.9328704,30.8333333 18.70619,30.8333333" id="路径-8" stroke="#FFFFFF" stroke-width="1.96292867" stroke-linecap="round" stroke-linejoin="round"></path>
                <path d="M14.6458333,20.0416667 C17.7291667,20.5264586 19.2708333,22.0681253 19.2708333,24.6666667" id="路径-9" stroke="#FFFFFF" stroke-width="1.96292867" stroke-linecap="round" stroke-linejoin="round"></path>
            </g>
        </g>
    </g>
</svg>