<?xml version="1.0" encoding="UTF-8"?>
<svg width="36px" height="36px" viewBox="0 0 36 36" version="1.1" xmlns="http://www.w3.org/2000/svg" xmlns:xlink="http://www.w3.org/1999/xlink">
    <title>编组备份</title>
    <defs>
        <filter id="filter-1">
            <feColorMatrix in="SourceGraphic" type="matrix" values="0 0 0 0 0.999902 0 0 0 0 1.000000 0 0 0 0 0.999880 0 0 0 1.000000 0"></feColorMatrix>
        </filter>
    </defs>
    <g id="页面-1" stroke="none" stroke-width="1" fill="none" fill-rule="evenodd">
        <g id="编组备份" transform="translate(-177.000000, -593.000000)" filter="url(#filter-1)">
            <g transform="translate(177.000000, 593.000000)">
                <path d="M18.0006329,35.1207564 C8.56362294,35.1207564 0.886044794,27.440187 0.886044794,17.999372 C0.886044794,8.55931056 8.56362294,0.879243571 18.0006329,0.879243571 C27.43701,0.879243571 35.1139552,8.55931056 35.1139552,17.999372 C35.1139552,27.440187 27.43701,35.1207564 18.0006329,35.1207564 M18.0006329,0 C8.07503252,0 0,8.07447053 0,17.999372 C0,27.9249014 8.07503252,36 18.0006329,36 C27.9256004,36 36,27.9249014 36,17.999372 C36,8.07447053 27.9256004,0 18.0006329,0" id="Fill-1" fill="#FFFFFF"></path>
                <path d="M24,29 C17,30.6666667 10.2677267,28.2072787 3.80318001,21.6218361 L3.80318001,21.6218361 C3.50293277,20.0242449 3.35280915,18.8167564 3.35280915,17.9993705 C3.35280915,13.8361915 5.12907488,9.85455113 8.22680019,7.07456625 C8.25113086,7.05266074 8.27546153,7.03201418 8.29991893,7.01036046 L10.8893613,14.835158 C10.8542592,14.8641136 10.8219451,14.8967201 10.7968541,14.935873 C10.7258896,15.0471631 10.7087821,15.1841354 10.7502203,15.3092738 L11.5640305,17.7698663 L9.3444904,18.0416708 C9.21840177,18.0571557 9.10511208,18.125516 9.03313384,18.2293783 C8.96128233,18.3334924 8.93771199,18.4630371 8.96837878,18.5854057 C8.98713367,18.6603125 9.43978553,20.4409531 10.4516627,22.1829444 C11.723067,24.3717324 13.3183733,25.5127071 15.0919779,25.5125812 C15.2635598,25.5125812 15.4371693,25.5018802 15.6119193,25.4804783 C15.6267458,25.4785899 15.6404318,25.4739318 15.6546247,25.4707845 C15.6562721,25.4707845 15.6577927,25.4711622 15.6595668,25.4711622 C15.6776881,25.4711622 15.6960628,25.470155 15.7144376,25.4678889 C16.7674994,25.3385961 17.5412655,24.8657393 18.0144463,24.0626633 C19.3670796,21.7667398 17.6497397,17.5378442 17.5759874,17.3589492 C17.5000807,17.1750185 17.3096172,17.0649874 17.1111702,17.0886554 L14.614235,17.3954584 L13.7459342,14.7686862 C13.6884023,14.5944493 13.5298728,14.4769904 13.3506875,14.4665413 L10.3761362,5.47483489 C12.667021,4.07200129 15.2947335,3.33023556 17.9993664,3.33023556 C26.0762622,3.33023556 32.6471909,9.91069973 32.6471909,17.9993705 C32.6471909,19.1754696 32.5065292,20.3338176 32.2338229,21.4604404 C31,24.5 24.8885207,28.7884475 24,29 Z M14.2794348,19.206943 C14.3558484,19.4382097 14.6067584,19.5642293 14.839167,19.4880636 C15.0718291,19.4121497 15.1985513,19.163132 15.1221378,18.9319911 L14.8963187,18.248766 L16.8739461,18.005917 C17.018156,18.4041188 17.2637437,19.1422336 17.4387472,19.986225 C17.7710129,21.5877189 17.7052441,22.8436346 17.2484104,23.6182586 C16.9176653,24.1792409 16.380363,24.4981297 15.6057099,24.5931794 C15.5879688,24.5953196 15.5716216,24.6006072 15.5546408,24.6047617 C15.5375333,24.6048876 15.5205525,24.6037545 15.5030649,24.6057688 C12.1954875,25.0119019 10.4521696,20.3827902 9.96986469,18.8530558 L11.8463677,18.6231739 L12.1265506,19.4701867 C12.1878842,19.6556282 12.3613669,19.7733388 12.5477753,19.7733388 C12.5936488,19.7733388 12.6404093,19.7661628 12.6864095,19.7510556 C12.9190715,19.6751417 13.0456671,19.4261239 12.9691268,19.1948572 L11.7612104,15.5430584 L13.0171545,15.3885868 L14.2794348,19.206943 Z M17.9993664,2.44897959 C15.0089748,2.44897959 12.1061483,3.30153179 9.60528479,4.91397841 C9.3598238,5.07159734 9.11575675,5.23903597 8.85977781,5.42548455 C8.65119299,5.5766829 8.44070734,5.73820453 8.23402336,5.90564316 C8.23047514,5.90853872 8.22680019,5.91168606 8.22325197,5.91458161 C8.2228718,5.9149593 8.22261836,5.91521108 8.22223819,5.91533698 C8.02657904,6.07421484 7.82775184,6.24429724 7.63145908,6.42130379 C4.34859256,9.36734248 2.46575342,13.5874255 2.46575342,17.9993705 C2.46575342,19.2979641 2.62631051,20.5892559 2.94324285,21.8381215 C2.98658186,22.0077003 3.03144153,22.1717398 3.07592104,22.324323 C3.9911091,25.4968445 5.94694026,28.3534986 8.5828897,30.3683016 C11.3071646,32.4504576 14.5634194,33.5510204 17.9993664,33.5510204 C24.5765044,33.5510204 30.4647803,29.3814208 32.651246,23.175994 C33.2372096,21.5187292 33.5342466,19.7769897 33.5342466,17.9993705 C33.5342466,9.42475001 26.5654101,2.44897959 17.9993664,2.44897959 L17.9993664,2.44897959 Z" id="Fill-3" fill="#FFFFFF"></path>
                <path d="M5.5,26 C12.8333333,29.3333333 18.8333333,30 23.5,28 C28.1666667,26 31.3333333,23.1666667 33,19.5 C31.6666667,26.8333333 27.5,31.1666667 20.5,32.5 C13.5,33.8333333 8.5,31.6666667 5.5,26 Z" id="路径-10" fill="#FFFFFF"></path>
            </g>
        </g>
    </g>
</svg>