<?xml version="1.0" encoding="UTF-8"?>
<svg width="144px" height="144px" viewBox="0 0 144 144" version="1.1" xmlns="http://www.w3.org/2000/svg" xmlns:xlink="http://www.w3.org/1999/xlink">
    <title>Democracy</title>
    <defs>
        <linearGradient x1="50%" y1="16.3615952%" x2="50%" y2="105.230646%" id="linearGradient-1">
            <stop stop-color="#FF377A" offset="0%"></stop>
            <stop stop-color="#FF377A" stop-opacity="0" offset="100%"></stop>
        </linearGradient>
        <linearGradient x1="66.8843313%" y1="0%" x2="66.8843313%" y2="100%" id="linearGradient-2">
            <stop stop-color="#FF377A" offset="0%"></stop>
            <stop stop-color="#FF377A" stop-opacity="0" offset="100%"></stop>
        </linearGradient>
    </defs>
    <g id="首页" stroke="none" stroke-width="1" fill="none" fill-rule="evenodd">
        <g id="图标" transform="translate(-19.000000, -578.000000)">
            <g id="Democracy" transform="translate(19.000000, 578.000000)">
                <path d="M74.4117701,34.413527 C76.230892,34.9648963 77.7441032,35.8029777 80.986155,39.0450295 L96.2798913,54.3387658 C99.521943,57.5808175 100.360024,59.0940287 100.911394,60.9131507 C101.462763,62.7322727 101.462763,64.5926481 100.911394,66.4117701 C100.360024,68.230892 99.521943,69.7441032 96.2798913,72.986155 L80.986155,88.2798913 C77.7441032,91.521943 76.230892,92.3600244 74.4117701,92.9113938 C72.5926481,93.4627631 70.7322727,93.4627631 68.9131507,92.9113938 C67.0940287,92.3600244 65.5808175,91.521943 62.3387658,88.2798913 L47.0450295,72.986155 C43.8029777,69.7441032 42.9648963,68.230892 42.413527,66.4117701 C41.8621577,64.5926481 41.8621577,62.7322727 42.413527,60.9131507 C42.9648963,59.0940287 43.8029777,57.5808175 47.0450295,54.3387658 L62.3387658,39.0450295 C65.5808175,35.8029777 67.0940287,34.9648963 68.9131507,34.413527 C70.7322727,33.8621577 72.5926481,33.8621577 74.4117701,34.413527 Z M66.944146,77.8263381 L67.0028852,77.8452261 C67.0418211,77.8573596 67.0809307,77.8687827 67.1201935,77.8794956 L67.1561662,77.8891009 C67.1740998,77.8937853 67.192064,77.8983221 67.2100568,77.9027115 C67.260167,77.9149323 67.310276,77.9259653 67.3605639,77.9358644 C67.38199,77.9400817 67.4033939,77.9440835 67.424827,77.9478806 C67.5727371,77.9740891 67.7221574,77.9905497 67.8719328,77.9972414 C67.8978413,77.9984021 67.9241712,77.9992795 67.9505065,77.9998552 C68.0009032,78.0009511 68.0509193,78.0009511 68.1009162,77.9998639 C68.1273198,77.9992944 68.1543168,77.9983948 68.1813021,77.997178 C68.3309234,77.9904063 68.4796022,77.9739881 68.6269032,77.9478969 L68.6498526,77.9437516 L68.6498526,77.9437516 L68.6887133,77.9363644 C68.7405303,77.926205 68.7921581,77.9148419 68.8435517,77.9022752 L68.8956563,77.8891009 C68.907746,77.8859431 68.9198218,77.8827181 68.9318832,77.8794262 C68.9708918,77.8687827 69.0100014,77.8573596 69.0489373,77.8452261 L69.1076765,77.8263381 L69.1076765,77.8263381 L69.1376872,77.8162334 C69.2635393,77.773208 69.3873871,77.7226553 69.5085291,77.6645752 C69.5308575,77.6538723 69.5533303,77.6427939 69.5757047,77.6314544 C69.6126665,77.6127163 69.6490018,77.5934633 69.6850539,77.5735114 C69.7128367,77.5581417 69.7409211,77.5420796 69.7688219,77.5255881 C69.8076873,77.5026116 69.845964,77.4789521 69.8838636,77.4544695 C69.9039187,77.441515 69.923942,77.4282801 69.9438551,77.4148131 C69.9785139,77.3913741 70.0128632,77.367214 70.0468582,77.3423496 C70.0744567,77.3221624 70.1017335,77.3015794 70.1287676,77.2805353 C70.1642112,77.2529491 70.1994281,77.2244097 70.2341989,77.1950689 L70.2786973,77.1568679 L70.2786973,77.1568679 L70.2899082,77.1470344 C70.3445643,77.0988845 70.3980536,77.0486977 70.4502773,76.996474 L70.4502773,76.996474 L84.996474,62.4502773 C85.4427875,62.0039639 85.7403298,61.4652158 85.8891009,60.8956563 C86.0378721,60.3260968 86.0378721,59.7257257 85.8891009,59.1561662 C85.7403298,58.5866066 85.4427875,58.0478586 84.996474,57.6015451 C84.5501605,57.1552317 84.0114125,56.8576893 83.4418529,56.7089182 C82.8722934,56.560147 82.2719223,56.560147 81.7023628,56.7089182 C81.1328033,56.8576893 80.5940552,57.1552317 80.1477418,57.6015451 L80.1477418,57.6015451 L68.026,69.723 L63.177179,64.8746434 C61.8860579,63.5835223 59.8213869,63.5374109 58.4750122,64.736309 L58.3284468,64.8746434 C56.9895064,66.2135839 56.9895064,68.3844352 58.3284468,69.7233757 L58.3284468,69.7233757 L65.6015451,76.996474 C65.6537688,77.0486977 65.7072581,77.0988845 65.7619143,77.1470344 C65.7803191,77.1632484 65.7988641,77.179238 65.8175377,77.1949965 C65.8523944,77.2244097 65.8876113,77.2529491 65.9232498,77.280687 C65.950089,77.3015794 65.9773658,77.3221624 66.0048747,77.3422841 C66.0389593,77.367214 66.0733086,77.3913741 66.1079922,77.4148299 C66.1278805,77.4282801 66.1479038,77.441515 66.1680334,77.4545177 C66.2079406,77.4802971 66.248342,77.5052088 66.2891334,77.5292045 C66.3120265,77.5426722 66.3351184,77.5558937 66.3583286,77.5688249 C66.402361,77.5933526 66.4466016,77.6167264 66.4912281,77.6390653 C66.5082759,77.6475989 66.5253816,77.6559823 66.5425416,77.6642147 C66.6638177,77.7224031 66.7879693,77.7731007 66.9141353,77.8162334 L66.944146,77.8263381 L66.944146,77.8263381 Z" id="Combined-Shape" fill="url(#linearGradient-1)"></path>
                <path d="M49.3767461,97.9481747 L93.9481747,97.9481747 C94.8949485,97.9481747 95.7819684,98.204012 96.5438732,98.6503254 C97.3057779,99.0966389 97.9425676,99.7334286 98.3888811,100.495333 C98.8351945,101.257238 99.0910318,102.144258 99.0910318,103.091032 C99.0910318,104.037806 98.8351945,104.924826 98.3888811,105.68673 C97.9425676,106.448635 97.3057779,107.085425 96.5438732,107.531738 C95.7819684,107.978052 94.8949485,108.233889 93.9481747,108.233889 L49.3767461,108.233889 C48.4299723,108.233889 47.5429524,107.978052 46.7810476,107.531738 C46.0191429,107.085425 45.3823532,106.448635 44.9360397,105.68673 C44.4897263,104.924826 44.233889,104.037806 44.233889,103.091032 C44.233889,102.144258 44.4897263,101.257238 44.9360397,100.495333 C45.3823532,99.7334286 46.0191429,99.0966389 46.7810476,98.6503254 C47.5429524,98.204012 48.4299723,97.9481747 49.3767461,97.9481747 Z" id="Rectangle" fill="url(#linearGradient-2)"></path>
            </g>
        </g>
    </g>
</svg>