<?xml version="1.0" encoding="UTF-8"?>
<svg width="144px" height="144px" viewBox="0 0 144 144" version="1.1" xmlns="http://www.w3.org/2000/svg" xmlns:xlink="http://www.w3.org/1999/xlink">
    <title>Treasury</title>
    <defs>
        <linearGradient x1="66.8843313%" y1="32.9393829%" x2="66.8843313%" y2="74.4491432%" id="linearGradient-1">
            <stop stop-color="#FF377A" offset="0%"></stop>
            <stop stop-color="#FF377A" stop-opacity="0" offset="100%"></stop>
        </linearGradient>
        <linearGradient x1="66.8843313%" y1="32.9393829%" x2="66.8843313%" y2="75.0471037%" id="linearGradient-2">
            <stop stop-color="#FF377A" offset="0%"></stop>
            <stop stop-color="#FF377A" stop-opacity="0" offset="100%"></stop>
        </linearGradient>
        <linearGradient x1="66.8843313%" y1="32.9393829%" x2="66.8843313%" y2="75.9263083%" id="linearGradient-3">
            <stop stop-color="#FF377A" offset="0%"></stop>
            <stop stop-color="#FF377A" stop-opacity="0" offset="100%"></stop>
        </linearGradient>
    </defs>
    <g id="首页" stroke="none" stroke-width="1" fill="none" fill-rule="evenodd">
        <g id="图标" transform="translate(-371.000000, -578.000000)" fill-rule="nonzero">
            <g id="Treasury" transform="translate(371.000000, 578.000000)">
                <polygon id="Path" fill="#FF377A" points="99.4286082 96.71175 95.3143202 96.71175 95.3143202 93.0676251 49.1429015 93.0676251 49.1429015 96.71175 45.0286135 96.71175 45.0286135 100.355875 41.8286082 100.355875 41.8286082 104 102.628678 104 102.628678 100.355875 99.4286724 100.355875 99.4286724 96.71175"></polygon>
                <path d="M59.1999786,71.2028859 L61.0285546,71.2028859 L61.0285546,68.9253091 C61.0285546,67.5587609 60.1142687,66.1922127 58.2856959,66.1922127 L49.1428372,66.1922127 C47.7714079,66.1922127 46.3999786,67.5587609 46.3999786,68.9253091 L46.3999786,71.2028859 L49.1428372,71.2028859 L49.1428372,98.6666667 L59.1999893,98.6666667 L59.1999786,71.2028859 Z" id="Path" fill="url(#linearGradient-1)"></path>
                <path d="M95.3244391,98.6666667 L95.3244391,71.2028859 L97.6101511,71.2028859 L97.6101511,68.9253091 C97.6101511,67.5587609 96.6958652,66.1922127 94.8672924,66.1922127 L85.7244337,66.1922127 C84.3530044,66.1922127 82.9815751,67.5587609 82.9815751,68.9253091 L82.9815751,71.2028859 L85.7244337,71.2028859 L85.7244337,98.6666667 L95.3244391,98.6666667 Z" id="Path" fill="url(#linearGradient-2)"></path>
                <path d="M77.0336408,98.6666667 L77.0336408,71.2028859 L79.3193528,71.2028859 L79.3193528,68.9253091 C79.3193528,67.5587609 78.405067,66.1922127 76.5764942,66.1922127 L67.4336355,66.1922127 C66.0622062,66.1922127 64.6907768,67.5587609 64.6907768,68.9253091 L64.6907768,71.2028859 L67.4336355,71.2028859 L67.4336355,98.6666667 L77.0336408,98.6666667 Z" id="Path" fill="url(#linearGradient-3)"></path>
                <path d="M69.7142666,40.6832738 C71.0856959,39.7722421 72.9142719,39.7722421 74.2857013,40.6832738 L74.2857013,40.6832738 L101.257141,56.6263006 C103.085714,57.5373292 104,59.359397 104,61.6369738 L104,61.6369738 L104,63.4590416 L40,63.4590416 L40,61.6369738 C40,59.359397 40.9142827,57.5373324 42.7428587,56.6263006 L42.7428587,56.6263006 Z M74.7428833,49.7935564 C73.371454,48.8825246 71.542878,48.8825246 70.1714486,49.7935564 L70.1714486,49.7935564 L61.9428726,54.3487206 C61.4857291,54.804236 61.4857291,54.804236 61.4857291,55.2597524 L61.4858957,55.3505569 C61.4880615,55.7152688 61.5183822,55.7152688 61.9428726,55.7152688 L82.0661285,55.7150052 C82.1301498,55.7121055 82.5142773,55.6773091 82.5142773,55.2597524 C82.9714593,54.804237 82.5143159,54.804237 82.9714593,54.3487206 L82.9714593,54.3487206 Z" id="Combined-Shape" fill="#FF377A"></path>
            </g>
        </g>
    </g>
</svg>