<?xml version="1.0" encoding="UTF-8"?>
<svg width="56px" height="56px" viewBox="0 0 56 56" version="1.1" xmlns="http://www.w3.org/2000/svg" xmlns:xlink="http://www.w3.org/1999/xlink">
    <title>13</title>
    <defs>
        <filter id="filter-1">
            <feColorMatrix in="SourceGraphic" type="matrix" values="0 0 0 0 0.913725 0 0 0 0 0.117647 0 0 0 0 0.388235 0 0 0 1.000000 0"></feColorMatrix>
        </filter>
        <rect id="path-2" x="0" y="0" width="56" height="56"></rect>
    </defs>
    <g id="控件" stroke="none" stroke-width="1" fill="none" fill-rule="evenodd">
        <g id="governance-polkadot" transform="translate(-51.000000, -283.000000)" filter="url(#filter-1)">
            <g transform="translate(51.000000, 283.000000)">
                <mask id="mask-3" fill="white">
                    <use xlink:href="#path-2"></use>
                </mask>
                <g id="蒙版"></g>
                <path d="M49.3493659,42.2380706 C49.1383356,42.4176829 48.9097882,42.5799158 48.6653364,42.7219666 L31.0145766,52.9788187 C29.1507757,54.0618729 26.8492243,54.0618729 24.9854234,52.9788187 L7.33466363,42.7219666 C7.09021181,42.5799158 6.86166436,42.4176829 6.65063415,42.2380706 L49.3493659,42.2380706 Z M31.0145766,3.02118129 L48.6653364,13.2780334 C50.1106577,14.1179092 51,15.6633011 51,17.3349307 L51,38.6650693 L50.998,38.6951039 L32.108,38.6941039 L40.7948617,29.9521515 C42.1936261,28.5443031 42.6046009,27.8530437 42.8563384,27.0759242 L42.8930083,26.958612 C43.1427877,26.1315147 43.1427877,25.2861942 42.8930083,24.4590969 C42.643229,23.6319996 42.2635643,22.9437982 40.7948617,21.4655574 L40.7948617,21.4655574 L31.7501651,12.362122 L31.7501651,12.362122 L31.728688,12.3406448 C29.8903778,10.5141961 26.9195037,10.5238118 25.093055,12.362122 L25.093055,12.362122 L16.0483584,21.4655574 C14.5796557,22.9437982 14.1999911,23.6319996 13.9502118,24.4590969 C13.7004324,25.2861942 13.7004324,26.1315147 13.9502118,26.958612 C14.1999911,27.7857093 14.5796557,28.4739106 16.0483584,29.9521515 L16.0483584,29.9521515 L24.735,38.6951039 L5.00010183,38.6960479 L5,17.3349307 C5,15.6633011 5.88934227,14.1179092 7.33466363,13.2780334 L24.9854234,3.02118129 C26.8492243,1.93812706 29.1507757,1.93812706 31.0145766,3.02118129 Z M33.2607001,22.5131826 C33.8436072,22.0377552 34.7034449,22.0717143 35.2467905,22.6150599 L35.2467905,22.6150599 L35.3742408,22.7425101 L35.4761181,22.8552233 C35.9515455,23.4381304 35.9175864,24.2979682 35.3742408,24.8413137 L35.3742408,24.8413137 L29.1784598,31.0370948 L29.0657466,31.138972 C28.4828395,31.6143994 27.6230017,31.5804403 27.0796561,31.0370948 L27.0796561,31.0370948 L22.4996981,26.4571367 L22.3978208,26.3444236 C21.9223934,25.7615165 21.9563525,24.9016787 22.4996981,24.3583331 L22.4996981,24.3583331 L22.5574865,24.3005447 L22.6701997,24.1986674 C23.2531068,23.7232401 24.1129446,23.7571992 24.6562901,24.3005447 L24.6562901,24.3005447 L28.0582092,27.7037106 L33.1479869,22.6150599 Z" id="形状结合" fill="#C9CACE" mask="url(#mask-3)"></path>
            </g>
        </g>
    </g>
</svg>