<?xml version="1.0" encoding="UTF-8"?>
<svg width="56px" height="56px" viewBox="0 0 56 56" version="1.1" xmlns="http://www.w3.org/2000/svg" xmlns:xlink="http://www.w3.org/1999/xlink">
    <title>14</title>
    <defs>
        <filter id="filter-1">
            <feColorMatrix in="SourceGraphic" type="matrix" values="0 0 0 0 0.913725 0 0 0 0 0.117647 0 0 0 0 0.388235 0 0 0 1.000000 0"></feColorMatrix>
        </filter>
        <rect id="path-2" x="0" y="0" width="56" height="56"></rect>
    </defs>
    <g id="控件" stroke="none" stroke-width="1" fill="none" fill-rule="evenodd">
        <g id="staking-polkadot" transform="translate(-51.000000, -209.000000)" filter="url(#filter-1)">
            <g transform="translate(51.000000, 209.000000)">
                <mask id="mask-3" fill="white">
                    <use xlink:href="#path-2"></use>
                </mask>
                <g id="蒙版"></g>
                <path d="M31.0145766,3.01707743 L48.6653364,13.2739295 C50.1106577,14.1138054 51,15.6591973 51,17.3308268 L51,38.6609655 C51,40.332595 50.1106577,41.8779869 48.6653364,42.7178628 L31.0145766,52.9747148 C29.1507757,54.0577691 26.8492243,54.0577691 24.9854234,52.9747148 L7.33466363,42.7178628 C5.88934227,41.8779869 5,40.332595 5,38.6609655 L5,17.3308268 C5,15.6591973 5.88934227,14.1138054 7.33466363,13.2739295 L24.9854234,3.01707743 C26.8492243,1.93402319 29.1507757,1.93402319 31.0145766,3.01707743 Z M28.2955474,12.7802153 C27.3655932,12.7802153 26.6085166,13.5456129 26.6085166,14.4858333 L26.6085166,14.4858333 L26.6085166,27.2758121 C26.6085166,27.7435653 26.2300145,28.1262824 25.7673687,28.1262824 C25.3047228,28.1262824 24.9261846,27.7483159 24.9261846,27.2758121 L24.9261846,27.2758121 L24.9261846,16.1962019 C24.9261846,15.2559815 24.169108,14.4905839 23.2391537,14.4905839 C22.3091995,14.4905839 21.5521229,15.2559815 21.5521229,16.1962019 L21.5521229,16.1962019 L21.5521229,29.5200771 C21.5521229,30.6587637 21.2203191,31.3249465 20.5614102,31.4950551 C19.907164,31.6651272 19.2996521,31.2446245 18.7622601,30.2524397 L18.7622601,30.2524397 L16.131251,25.6410515 C16.1265884,25.6363374 16.1265884,25.6269092 16.1218897,25.6221586 C15.9022413,25.2205487 15.551751,24.9370464 15.131177,24.8189388 C14.7386148,24.7102592 14.3274021,24.7669743 13.9769118,24.9795827 C13.2011487,25.4520499 12.8973928,26.5718437 13.3226294,27.431742 C13.3273281,27.431742 13.3273281,27.431742 13.3273281,27.4364561 C13.3366533,27.4553855 14.3881244,29.6335072 17.8089205,36.5411249 C19.552011,40.0705416 21.1922712,41.7714455 22.2578024,42.5793794 C23.3279601,43.392064 24.038266,43.4723494 24.103687,43.4771 L24.103687,43.4771 L32.5200461,43.4771 C35.2258737,43.4771 36.9268923,41.1808341 37.8802319,39.2578571 C39.338253,36.3095871 40.1093896,32.1659885 40.1093896,27.2758121 L40.1093896,27.2758121 L40.0953657,21.3084149 C40.0953657,20.3681945 39.3383253,19.6027969 38.4083349,19.6027969 C37.4783806,19.6027969 36.721304,20.3681945 36.721304,21.3084149 L36.721304,21.3084149 L36.721304,28.9815032 C36.721304,29.4492564 36.3474645,29.8319734 35.8801561,29.8319734 C35.4175102,29.8319734 35.038972,29.454007 35.038972,28.9815032 L35.038972,28.9815032 L35.038972,16.1914878 C35.038972,15.2512675 34.2819316,14.4858333 33.3519411,14.4858333 C32.4219869,14.4858333 31.6649103,15.2512675 31.6649103,16.1915244 L31.6649103,16.1915244 L31.6649103,27.2758121 C31.6649103,27.7435653 31.2864082,28.1262824 30.8237624,28.1262824 C30.3611165,28.1262824 29.9825783,27.7483159 29.9825783,27.2758121 L29.9825783,27.2758121 L29.9825783,14.4858333 C29.9825783,13.5456129 29.2255379,12.7802153 28.2955474,12.7802153 Z" id="形状结合" fill="#FA007C" mask="url(#mask-3)"></path>
            </g>
        </g>
    </g>
</svg>