<?xml version="1.0" encoding="UTF-8"?>
<svg width="60px" height="60px" viewBox="0 0 60 60" version="1.1" xmlns="http://www.w3.org/2000/svg" xmlns:xlink="http://www.w3.org/1999/xlink">
    <title>14</title>
    <defs>
        <filter id="filter-1">
            <feColorMatrix in="SourceGraphic" type="matrix" values="0 0 0 0 0.913725 0 0 0 0 0.117647 0 0 0 0 0.388235 0 0 0 1.000000 0"></feColorMatrix>
        </filter>
        <rect id="path-2" x="0" y="0" width="60" height="60"></rect>
        <filter id="filter-4">
            <feColorMatrix in="SourceGraphic" type="matrix" values="0 0 0 0 0.788235 0 0 0 0 0.792157 0 0 0 0 0.807843 0 0 0 1.000000 0"></feColorMatrix>
        </filter>
    </defs>
    <g id="控件" stroke="none" stroke-width="1" fill="none" fill-rule="evenodd">
        <g id="14" transform="translate(-638.000000, -130.000000)" filter="url(#filter-1)">
            <g transform="translate(638.000000, 130.000000)">
                <mask id="mask-3" fill="white">
                    <use xlink:href="#path-2"></use>
                </mask>
                <g id="蒙版"></g>
                <g filter="url(#filter-4)" id="编组-20">
                    <g mask="url(#mask-3)">
                        <g transform="translate(3.000000, 3.000000)" id="多边形" stroke="#0041DC" stroke-width="3">
                            <path d="M27,-0.726497308 C28.1222233,-0.726497308 29.2444465,-0.436219016 30.25,0.144337567 L30.25,0.144337567 L48.6326859,10.7575862 C49.6382394,11.3381428 50.4507394,12.1648775 51.011851,13.1367513 C51.5729627,14.1086252 51.8826859,15.2256382 51.8826859,16.3867513 L51.8826859,16.3867513 L51.8826859,37.6132487 C51.8826859,39.935475 50.6437929,42.0813006 48.6326859,43.2424138 L48.6326859,43.2424138 L30.25,53.8556624 C29.2444465,54.436219 28.1222233,54.7264973 27,54.7264973 C25.8777767,54.7264973 24.7555535,54.436219 23.75,53.8556624 L23.75,53.8556624 L5.3673141,43.2424138 C3.3562071,42.0813006 2.1173141,39.935475 2.1173141,37.6132487 L2.1173141,37.6132487 L2.1173141,16.3867513 C2.1173141,15.2256382 2.42703735,14.1086252 2.98814897,13.1367513 C3.5492606,12.1648775 4.3617606,11.3381428 5.3673141,10.7575862 L5.3673141,10.7575862 L23.75,0.144337567 C24.7555535,-0.436219016 25.8777767,-0.726497308 27,-0.726497308 Z"></path>
                        </g>
                    </g>
                </g>
                <path d="M30.6405808,7.87735027 L48.2478989,18.0429401 C48.866701,18.4002057 49.2478989,19.0604597 49.2478989,19.7749909 L49.2478989,40.1061706 C49.2478989,40.8207018 48.866701,41.4809558 48.2478989,41.8382214 L30.6405808,52.0038113 C30.0217786,52.3610769 29.2593829,52.3610769 28.6405808,52.0038113 L11.0332627,41.8382214 C10.4144605,41.4809558 10.0332627,40.8207018 10.0332627,40.1061706 L10.0332627,19.7749909 C10.0332627,19.0604597 10.4144605,18.4002057 11.0332627,18.0429401 L28.6405808,7.87735027 C29.2593829,7.52008468 30.0217786,7.52008468 30.6405808,7.87735027 Z M29.8925326,17.9000202 C29.099754,17.9000202 28.4543522,18.5483054 28.4543522,19.3446641 L28.4543522,19.3446641 L28.4543522,30.1776673 C28.4543522,30.5738502 28.1316821,30.8980083 27.7372802,30.8980083 C27.3428783,30.8980083 27.0201774,30.5778739 27.0201774,30.1776673 L27.0201774,30.1776673 L27.0201774,20.7933317 C27.0201774,19.9969731 26.3747757,19.3486878 25.581997,19.3486878 C24.7892183,19.3486878 24.1438166,19.9969731 24.1438166,20.7933317 L24.1438166,20.7933317 L24.1438166,32.0785406 C24.1438166,33.0429984 23.8609564,33.6072495 23.2992418,33.7513301 C22.7415021,33.8953798 22.223603,33.5392175 21.7654806,32.6988454 L21.7654806,32.6988454 L19.5225662,28.7930389 L19.5225662,28.7930389 L19.5145857,28.7770368 C19.3273372,28.4368766 19.0285469,28.1967526 18.6700109,28.0967164 C18.3353548,28.0046658 17.9847992,28.052703 17.686009,28.2327805 C17.0246771,28.6329562 16.7657276,29.5814119 17.1282384,30.3097385 C17.132244,30.3097385 17.132244,30.3097385 17.132244,30.3137313 C17.1401937,30.3297644 18.0365645,32.1746149 20.9527661,38.0253083 C22.438737,41.0146942 23.8370458,42.4553453 24.7454027,43.1396585 C25.6577037,43.8279953 26.2632339,43.8959964 26.3190048,43.9000202 L26.3190048,43.9000202 L33.4938843,43.9000202 C35.8005809,43.9000202 37.2506859,41.9551024 38.0634003,40.3263573 C39.3063518,37.8291977 39.9637397,34.319605 39.9637397,30.1776673 L39.9637397,30.1776673 L39.9517844,25.1233326 C39.9517844,24.3269739 39.3064134,23.6786887 38.5136039,23.6786887 C37.7208253,23.6786887 37.0754235,24.3269739 37.0754235,25.1233326 L37.0754235,25.1233326 L37.0754235,31.6223731 C37.0754235,32.018556 36.7567283,32.3427141 36.3583515,32.3427141 C35.9639496,32.3427141 35.6412487,32.0225797 35.6412487,31.6223731 L35.6412487,31.6223731 L35.6412487,20.7893389 C35.6412487,19.9929803 34.9958778,19.3446641 34.2030683,19.3446641 C33.4102896,19.3446641 32.7648879,19.9929803 32.7648879,20.7893699 L32.7648879,20.7893699 L32.7648879,30.1776673 C32.7648879,30.5738502 32.4422178,30.8980083 32.0478159,30.8980083 C31.6534139,30.8980083 31.3307131,30.5778739 31.3307131,30.1776673 L31.3307131,30.1776673 L31.3307131,19.3446641 C31.3307131,18.5483054 30.6853421,17.9000202 29.8925326,17.9000202 Z" id="形状结合" fill="#FA007C" mask="url(#mask-3)"></path>
            </g>
        </g>
    </g>
</svg>