<?xml version="1.0" encoding="UTF-8"?>
<svg width="60px" height="60px" viewBox="0 0 60 60" version="1.1" xmlns="http://www.w3.org/2000/svg" xmlns:xlink="http://www.w3.org/1999/xlink">
    <title>13</title>
    <defs>
        <filter id="filter-1">
            <feColorMatrix in="SourceGraphic" type="matrix" values="0 0 0 0 0.913725 0 0 0 0 0.117647 0 0 0 0 0.388235 0 0 0 1.000000 0"></feColorMatrix>
        </filter>
        <rect id="path-2" x="0" y="0" width="60" height="60"></rect>
        <filter id="filter-4">
            <feColorMatrix in="SourceGraphic" type="matrix" values="0 0 0 0 0.788235 0 0 0 0 0.792157 0 0 0 0 0.807843 0 0 0 1.000000 0"></feColorMatrix>
        </filter>
    </defs>
    <g id="控件" stroke="none" stroke-width="1" fill="none" fill-rule="evenodd">
        <g id="13" transform="translate(-718.000000, -130.000000)" filter="url(#filter-1)">
            <g transform="translate(718.000000, 130.000000)">
                <mask id="mask-3" fill="white">
                    <use xlink:href="#path-2"></use>
                </mask>
                <g id="蒙版"></g>
                <g filter="url(#filter-4)" id="编组-20">
                    <g mask="url(#mask-3)">
                        <g transform="translate(3.000000, 3.000000)" id="多边形" stroke="#0041DC" stroke-width="3">
                            <path d="M27,-0.726497308 C28.1222233,-0.726497308 29.2444465,-0.436219016 30.25,0.144337567 L30.25,0.144337567 L48.6326859,10.7575862 C49.6382394,11.3381428 50.4507394,12.1648775 51.011851,13.1367513 C51.5729627,14.1086252 51.8826859,15.2256382 51.8826859,16.3867513 L51.8826859,16.3867513 L51.8826859,37.6132487 C51.8826859,39.935475 50.6437929,42.0813006 48.6326859,43.2424138 L48.6326859,43.2424138 L30.25,53.8556624 C29.2444465,54.436219 28.1222233,54.7264973 27,54.7264973 C25.8777767,54.7264973 24.7555535,54.436219 23.75,53.8556624 L23.75,53.8556624 L5.3673141,43.2424138 C3.3562071,42.0813006 2.1173141,39.935475 2.1173141,37.6132487 L2.1173141,37.6132487 L2.1173141,16.3867513 C2.1173141,15.2256382 2.42703735,14.1086252 2.98814897,13.1367513 C3.5492606,12.1648775 4.3617606,11.3381428 5.3673141,10.7575862 L5.3673141,10.7575862 L23.75,0.144337567 C24.7555535,-0.436219016 25.8777767,-0.726497308 27,-0.726497308 Z"></path>
                        </g>
                    </g>
                </g>
                <path d="M47.9662627,41.9999744 L30.6405808,52.0038113 C30.0217786,52.3610769 29.2593829,52.3610769 28.6405808,52.0038113 L11.3142627,41.9999744 L47.9662627,41.9999744 Z M30.6405808,7.87735027 L48.2478989,18.0429401 C48.866701,18.4002057 49.2478989,19.0604597 49.2478989,19.7749909 L49.2472627,38.9999744 L33.1239709,39.0021547 C33.2790705,38.8576972 33.4456028,38.6965328 33.6258812,38.5162544 L33.6258812,38.5162544 L40.5162544,31.6258812 C41.7770523,30.3650833 42.1029728,29.7766123 42.3173942,29.069176 C42.5318157,28.3617397 42.5318157,27.6382603 42.3173942,26.930824 C42.1029728,26.2233877 41.7770523,25.6349167 40.5162544,24.3741188 L40.5162544,24.3741188 L33.6258812,17.4837456 C32.3650833,16.2229477 31.7766123,15.8970272 31.069176,15.6826058 C30.3617397,15.4681843 29.6382603,15.4681843 28.930824,15.6826058 C28.2233877,15.8970272 27.6349167,16.2229477 26.3741188,17.4837456 L26.3741188,17.4837456 L19.4837456,24.3741188 C18.2229477,25.6349167 17.8970272,26.2233877 17.6826058,26.930824 C17.4681843,27.6382603 17.4681843,28.3617397 17.6826058,29.069176 C17.8970272,29.7766123 18.2229477,30.3650833 19.4837456,31.6258812 L19.4837456,31.6258812 L26.3741188,38.5162544 C26.5543972,38.6965328 26.7209295,38.8576972 26.8760291,39.0021547 L10.0332627,38.9999744 L10.0332627,19.7749909 C10.0332627,19.0604597 10.4144605,18.4002057 11.0332627,18.0429401 L28.6405808,7.87735027 C29.2593829,7.52008468 30.0217786,7.52008468 30.6405808,7.87735027 Z M34.1258027,25.2703142 C34.6225971,24.8706603 35.3511504,24.9014029 35.8122895,25.3625421 L35.8122895,25.3625421 L35.9086941,25.4589466 L36.0009219,25.5616733 C36.4005759,26.0584677 36.3698333,26.787021 35.9086941,27.2481601 L35.9086941,27.2481601 L30.6268398,32.5300145 L30.5241131,32.6222423 C30.0273187,33.0218962 29.2987655,32.9911536 28.8376263,32.5300145 L28.8376263,32.5300145 L24.9699855,28.6623737 L24.8777577,28.559647 C24.4781038,28.0628526 24.5088464,27.3342994 24.9699855,26.8731602 L24.9699855,26.8731602 L25.0192497,26.8238961 L25.1219764,26.7316682 C25.6187707,26.3320143 26.347324,26.3627569 26.8084632,26.8238961 L26.8084632,26.8238961 L29.6848569,29.7002898 L34.023076,25.3625421 Z" id="形状结合" fill="#C9CACE" mask="url(#mask-3)"></path>
            </g>
        </g>
    </g>
</svg>